<?xml version="1.0" encoding="UTF-8" standalone="no"?>
<!-- Created with Inkscape (http://www.inkscape.org/) -->

<svg
   xmlns:dc="http://purl.org/dc/elements/1.1/"
   xmlns:cc="http://creativecommons.org/ns#"
   xmlns:rdf="http://www.w3.org/1999/02/22-rdf-syntax-ns#"
   xmlns:svg="http://www.w3.org/2000/svg"
   xmlns="http://www.w3.org/2000/svg"
   xmlns:sodipodi="http://sodipodi.sourceforge.net/DTD/sodipodi-0.dtd"
   xmlns:inkscape="http://www.inkscape.org/namespaces/inkscape"
   width="138.28889mm"
   height="138.28889mm"
   viewBox="0 0 490.00002 490.00002"
   id="svg4636"
   version="1.1"
   inkscape:version="0.91 r13725"
   sodipodi:docname="Department of Agriculture of the Philippines (DA).svg">
  <title
     id="title5066">Department of Agriculture (DA)</title>
  <defs
     id="defs4638">
    <path
       style="fill:none;fill-opacity:1;stroke:none;stroke-width:2.60646081;stroke-linecap:round;stroke-linejoin:round;stroke-miterlimit:4;stroke-dasharray:none;stroke-dashoffset:0;stroke-opacity:1"
       id="path4570"
       sodipodi:type="arc"
       sodipodi:cx="-375.86749"
       sodipodi:cy="547.28656"
       sodipodi:rx="300.58447"
       sodipodi:ry="300.58447"
       sodipodi:start="1.2840155"
       sodipodi:end="2.1121061"
       d="M -290.84237,835.59499 A 300.58447,300.58447 0 0 1 -530.74633,804.89784"
       transform="scale(-1,1)"
       sodipodi:open="true" />
    <path
       style="fill:none;fill-opacity:1;stroke:none;stroke-width:0.93620014;stroke-linecap:round;stroke-linejoin:round;stroke-miterlimit:4;stroke-dasharray:none;stroke-dashoffset:0;stroke-opacity:1"
       id="path4558"
       sodipodi:type="arc"
       sodipodi:cx="372.215"
       sodipodi:cy="542.68207"
       sodipodi:rx="259.53189"
       sodipodi:ry="259.53189"
       sodipodi:start="3.0185817"
       sodipodi:end="0.16028538"
       d="M 114.64421,574.52688 A 259.53189,259.53189 0 0 1 236.0795,321.72069 259.53189,259.53189 0 0 1 516.49023,326.94737 259.53189,259.53189 0 0 1 628.42015,584.10334"
       sodipodi:open="true" />
  </defs>
  <sodipodi:namedview
     id="base"
     pagecolor="#ffffff"
     bordercolor="#666666"
     borderopacity="1.0"
     inkscape:pageopacity="0.0"
     inkscape:pageshadow="2"
     inkscape:zoom="0.49497475"
     inkscape:cx="59.254028"
     inkscape:cy="191.8266"
     inkscape:document-units="px"
     inkscape:current-layer="layer1"
     showgrid="false"
     fit-margin-top="0"
     fit-margin-left="0"
     fit-margin-right="0"
     fit-margin-bottom="0"
     inkscape:window-width="1366"
     inkscape:window-height="705"
     inkscape:window-x="-4"
     inkscape:window-y="-4"
     inkscape:window-maximized="1"
     inkscape:snap-object-midpoints="true"
     inkscape:snap-center="true" />
  <metadata
     id="metadata4641">
    <rdf:RDF>
      <cc:Work
         rdf:about="">
        <dc:format>image/svg+xml</dc:format>
        <dc:type
           rdf:resource="http://purl.org/dc/dcmitype/StillImage" />
        <dc:title>Department of Agriculture (DA)</dc:title>
      </cc:Work>
    </rdf:RDF>
  </metadata>
  <g
     inkscape:label="Layer 1"
     inkscape:groupmode="layer"
     id="layer1"
     transform="translate(-117.08911,-255.91235)">
    <g
       id="g4992"
       transform="matrix(0.99796334,0,0,0.99796334,0.2384707,1.5191698)">
      <circle
         r="245"
         cy="500.41235"
         cx="362.58911"
         id="path4118"
         style="color:#000000;clip-rule:nonzero;display:inline;overflow:visible;visibility:visible;opacity:1;isolation:auto;mix-blend-mode:normal;color-interpolation:sRGB;color-interpolation-filters:linearRGB;solid-color:#000000;solid-opacity:1;fill:#ffffff;fill-opacity:1;fill-rule:evenodd;stroke:#000000;stroke-width:1;stroke-linecap:butt;stroke-linejoin:miter;stroke-miterlimit:10;stroke-dasharray:none;stroke-dashoffset:0;stroke-opacity:1;color-rendering:auto;image-rendering:auto;shape-rendering:auto;text-rendering:auto;enable-background:accumulate" />
      <g
         transform="matrix(1.5289201,0,0,1.5040745,-189.78352,-233.92568)"
         id="g4120">
        <path
           style="fill:#ffad00;fill-opacity:1;fill-rule:evenodd;stroke:none;stroke-width:1px;stroke-linecap:butt;stroke-linejoin:miter;stroke-opacity:1"
           d="m 355.61836,384.03935 0.0134,16.40097 c 0,0 1.34667,5.67307 7.19019,5.67554 5.9045,0.003 7.13228,-5.54147 7.13228,-5.54147 l 0.11656,-16.57973 c 0,0 -0.8943,-5.65171 -6.96915,-5.67555 -6.07481,-0.0238 -7.45859,5.40741 -7.45859,5.40741 z"
           id="path4255"
           inkscape:connector-curvature="0"
           sodipodi:nodetypes="ccscczcc" />
        <path
           style="fill:#ffad00;fill-opacity:1;fill-rule:evenodd;stroke:none;stroke-width:1px;stroke-linecap:butt;stroke-linejoin:miter;stroke-opacity:1"
           d="m 380.67755,399.4119 -12.84928,10.82847 c 0,0 -3.55936,4.71245 0.29331,8.92448 3.89293,4.25592 9.04918,1.4836 9.04918,1.4836 l 13.07526,-10.85257 c 0,0 3.84103,-4.37241 -0.14747,-8.76518 -3.98849,-4.39275 -9.1593,-1.80716 -9.1593,-1.80716 z"
           id="path4255-0"
           inkscape:connector-curvature="0"
           sodipodi:nodetypes="ccscczcc" />
        <path
           style="fill:#ffad00;fill-opacity:1;fill-rule:evenodd;stroke:none;stroke-width:1px;stroke-linecap:butt;stroke-linejoin:miter;stroke-opacity:1"
           d="m 344.53915,399.63763 12.84923,10.82847 c 0,0 3.55936,4.71245 -0.29331,8.92448 -3.89294,4.25592 -9.04918,1.48361 -9.04918,1.48361 l -13.07526,-10.85258 c 0,0 -3.84098,-4.37241 0.14747,-8.76518 3.98849,-4.39275 9.1593,-1.80716 9.1593,-1.80716 z"
           id="path4255-0-7"
           inkscape:connector-curvature="0"
           sodipodi:nodetypes="ccscczcc" />
        <path
           style="fill:#ffad00;fill-opacity:1;fill-rule:evenodd;stroke:none;stroke-width:1px;stroke-linecap:butt;stroke-linejoin:miter;stroke-opacity:1"
           d="m 379.64594,421.06969 -12.84924,10.82845 c 0,0 -3.55935,4.71245 0.29332,8.92448 3.89294,4.25593 9.04917,1.48361 9.04917,1.48361 l 13.07527,-10.85258 c 0,0 3.84097,-4.37241 -0.14748,-8.76517 -3.98849,-4.39275 -9.15928,-1.80715 -9.15928,-1.80715 z"
           id="path4255-0-0"
           inkscape:connector-curvature="0"
           sodipodi:nodetypes="ccscczcc" />
        <path
           style="fill:#ffad00;fill-opacity:1;fill-rule:evenodd;stroke:none;stroke-width:1px;stroke-linecap:butt;stroke-linejoin:miter;stroke-opacity:1"
           d="m 380.46266,441.91377 -12.84924,10.82846 c 0,0 -3.55935,4.71245 0.29332,8.92447 3.89294,4.25592 9.04912,1.4836 9.04912,1.4836 l 13.07532,-10.85257 c 0,0 3.84098,-4.37241 -0.14748,-8.76517 -3.98849,-4.39276 -9.15933,-1.80716 -9.15933,-1.80716 z"
           id="path4255-0-77"
           inkscape:connector-curvature="0"
           sodipodi:nodetypes="ccscczcc" />
        <path
           style="fill:#ffad00;fill-opacity:1;fill-rule:evenodd;stroke:none;stroke-width:1px;stroke-linecap:butt;stroke-linejoin:miter;stroke-opacity:1"
           d="m 380.2762,463.36464 -12.84923,10.82847 c 0,0 -3.55936,4.71245 0.29331,8.92447 3.89288,4.25592 9.04913,1.4836 9.04913,1.4836 l 13.07531,-10.85258 c 0,0 3.84098,-4.3724 -0.14752,-8.76516 -3.98844,-4.39276 -9.1593,-1.80716 -9.1593,-1.80716 z"
           id="path4255-0-4"
           inkscape:connector-curvature="0"
           sodipodi:nodetypes="ccscczcc" />
        <path
           style="fill:#ffad00;fill-opacity:1;fill-rule:evenodd;stroke:none;stroke-width:1px;stroke-linecap:butt;stroke-linejoin:miter;stroke-opacity:1"
           d="m 344.34264,420.82041 12.84928,10.82847 c 0,0 3.55935,4.71245 -0.29331,8.92446 -3.89294,4.25592 -9.04918,1.48361 -9.04918,1.48361 l -13.07527,-10.85258 c 0,0 -3.84102,-4.37241 0.14747,-8.76517 3.9885,-4.39276 9.1593,-1.80716 9.1593,-1.80716 z"
           id="path4255-0-7-5"
           inkscape:connector-curvature="0"
           sodipodi:nodetypes="ccscczcc" />
        <path
           style="fill:#ffad00;fill-opacity:1;fill-rule:evenodd;stroke:none;stroke-width:1px;stroke-linecap:butt;stroke-linejoin:miter;stroke-opacity:1"
           d="m 344.15618,442.09252 12.84927,10.82847 c 0,0 3.55936,4.71245 -0.2933,8.92446 -3.89294,4.25594 -9.04917,1.48361 -9.04917,1.48361 L 334.5877,452.47649 c 0,0 -3.84102,-4.3724 0.14747,-8.76517 3.9885,-4.39275 9.1593,-1.80716 9.1593,-1.80716 z"
           id="path4255-0-7-2"
           inkscape:connector-curvature="0"
           sodipodi:nodetypes="ccscczcc" />
        <path
           style="fill:#ffad00;fill-opacity:1;fill-rule:evenodd;stroke:none;stroke-width:1px;stroke-linecap:butt;stroke-linejoin:miter;stroke-opacity:1"
           d="m 343.96971,463.18588 12.84929,10.82846 c 0,0 3.5593,4.71246 -0.29336,8.92447 -3.89289,4.25593 -9.04913,1.48361 -9.04913,1.48361 l -13.07532,-10.85257 c 0,0 -3.84097,-4.37241 0.14753,-8.76518 3.98844,-4.39275 9.1593,-1.80716 9.1593,-1.80716 z"
           id="path4255-0-7-3"
           inkscape:connector-curvature="0"
           sodipodi:nodetypes="ccscczcc" />
        <path
           style="fill:#ffad00;fill-opacity:1;fill-rule:evenodd;stroke:none;stroke-width:1px;stroke-linecap:butt;stroke-linejoin:miter;stroke-opacity:1"
           d="m 311.71633,408.17331 12.84928,10.82846 c 0,0 3.55936,4.71245 -0.29331,8.92448 -3.89293,4.25592 -9.04918,1.4836 -9.04918,1.4836 l -13.07526,-10.85257 c 0,0 -3.84103,-4.37241 0.14747,-8.76518 3.98844,-4.39275 9.1593,-1.80716 9.1593,-1.80716 z"
           id="path4255-0-7-1"
           inkscape:connector-curvature="0"
           sodipodi:nodetypes="ccscczcc" />
        <path
           style="fill:#ffad00;fill-opacity:1;fill-rule:evenodd;stroke:none;stroke-width:1px;stroke-linecap:butt;stroke-linejoin:miter;stroke-opacity:1"
           d="m 311.51986,429.35608 12.84924,10.82846 c 0,0 3.55935,4.71245 -0.29331,8.92447 -3.89294,4.25593 -9.04913,1.48361 -9.04913,1.48361 l -13.07532,-10.85258 c 0,0 -3.84097,-4.3724 0.14748,-8.76516 3.98849,-4.39276 9.15934,-1.80716 9.15934,-1.80716 z"
           id="path4255-0-7-5-4"
           inkscape:connector-curvature="0"
           sodipodi:nodetypes="ccscczcc" />
        <path
           style="fill:#ffad00;fill-opacity:1;fill-rule:evenodd;stroke:none;stroke-width:1px;stroke-linecap:butt;stroke-linejoin:miter;stroke-opacity:1"
           d="m 311.70632,451.52197 12.84923,10.82847 c 0,0 3.55936,4.71245 -0.29331,8.92448 -3.89288,4.25592 -9.04912,1.4836 -9.04912,1.4836 L 302.1378,461.90595 c 0,0 -3.84098,-4.37241 0.14752,-8.76518 3.98844,-4.39275 9.1593,-1.80716 9.1593,-1.80716 z"
           id="path4255-0-7-2-2"
           inkscape:connector-curvature="0"
           sodipodi:nodetypes="ccscczcc" />
        <path
           style="fill:#ffad00;fill-opacity:1;fill-rule:evenodd;stroke:none;stroke-width:1px;stroke-linecap:butt;stroke-linejoin:miter;stroke-opacity:1"
           d="m 413.27542,407.27952 -12.84923,10.82847 c 0,0 -3.55936,4.71245 0.29331,8.92447 3.89294,4.25593 9.04917,1.4836 9.04917,1.4836 l 13.07527,-10.85257 c 0,0 3.84098,-4.3724 -0.14747,-8.76517 -3.98849,-4.39275 -9.15929,-1.80716 -9.15929,-1.80716 z"
           id="path4255-0-7-1-8"
           inkscape:connector-curvature="0"
           sodipodi:nodetypes="ccscczcc" />
        <path
           style="fill:#ffad00;fill-opacity:1;fill-rule:evenodd;stroke:none;stroke-width:1px;stroke-linecap:butt;stroke-linejoin:miter;stroke-opacity:1"
           d="m 413.47193,428.46229 -12.84928,10.82847 c 0,0 -3.55935,4.71244 0.29331,8.92447 3.89294,4.25593 9.04918,1.48361 9.04918,1.48361 l 13.07527,-10.85258 c 0,0 3.84102,-4.37241 -0.14747,-8.76518 -3.9885,-4.39274 -9.1593,-1.80716 -9.1593,-1.80716 z"
           id="path4255-0-7-5-4-0"
           inkscape:connector-curvature="0"
           sodipodi:nodetypes="ccscczcc" />
        <path
           style="fill:#ffad00;fill-opacity:1;fill-rule:evenodd;stroke:none;stroke-width:1px;stroke-linecap:butt;stroke-linejoin:miter;stroke-opacity:1"
           d="m 408.81027,452.23701 -12.84923,10.82847 c 0,0 -3.55935,4.71244 0.29331,8.92446 3.89294,4.25594 9.04918,1.48361 9.04918,1.48361 l 13.07527,-10.85257 c 0,0 3.84102,-4.37241 -0.14747,-8.76518 -3.9885,-4.39274 -9.1593,-1.80715 -9.1593,-1.80715 z"
           id="path4255-0-7-2-2-6"
           inkscape:connector-curvature="0"
           sodipodi:nodetypes="ccscczcc" />
        <path
           style="fill:#ffad00;fill-opacity:1;fill-rule:evenodd;stroke:none;stroke-width:1px;stroke-linecap:butt;stroke-linejoin:miter;stroke-opacity:1"
           d="m 316.48489,390.87685 0.0134,16.40097 c 0,0 1.34668,5.67309 7.19019,5.67555 5.90456,0.003 7.13229,-5.54147 7.13229,-5.54147 l 0.11656,-16.57974 c 0,0 -0.8943,-5.65171 -6.96911,-5.67554 -6.07485,-0.0238 -7.45858,5.4074 -7.45858,5.4074 z"
           id="path4255-9"
           inkscape:connector-curvature="0"
           sodipodi:nodetypes="ccscczcc" />
        <path
           style="fill:#ffad00;fill-opacity:1;fill-rule:evenodd;stroke:none;stroke-width:1px;stroke-linecap:butt;stroke-linejoin:miter;stroke-opacity:1"
           d="m 393.30837,390.16182 0.0139,16.40097 c 0,0 1.34662,5.67308 7.19019,5.67555 5.9045,0.003 7.13229,-5.54148 7.13229,-5.54148 l 0.11655,-16.57973 c 0,0 -0.89429,-5.65171 -6.96915,-5.67554 -6.07481,-0.0238 -7.45858,5.4074 -7.45858,5.4074 z"
           id="path4255-1"
           inkscape:connector-curvature="0"
           sodipodi:nodetypes="ccscczcc" />
        <path
           style="fill:#006633;fill-opacity:1;fill-rule:evenodd;stroke:none;stroke-width:1px;stroke-linecap:butt;stroke-linejoin:miter;stroke-opacity:1"
           d="m 271.87121,439.74893 c 8.3928,2.4096 25.0516,8.59523 25.0516,8.59523 l 0,10.49125 c 0,0 -11.82941,-5.80733 -18.06353,-7.96323 -6.71899,-2.3236 -20.7005,-5.30883 -20.7005,-5.30883 0,0 2.59983,-4.15808 4.74662,-5.18241 2.68274,-1.28006 6.09512,-1.4562 8.96581,-0.63201 z"
           id="path4416"
           inkscape:connector-curvature="0"
           sodipodi:nodetypes="sccacas" />
        <path
           style="fill:#006633;fill-opacity:1;fill-rule:evenodd;stroke:none;stroke-width:1px;stroke-linecap:butt;stroke-linejoin:miter;stroke-opacity:1"
           d="m 260.7958,452.51538 c -2.99785,-0.51856 -6.59251,6.06723 -6.59251,6.06723 0,0 3.88173,-0.50165 15.35779,2.88982 37.16897,12.73172 52.27592,24.65877 71.39979,59.29922 l 7.64732,-5.18243 C 326.84096,474.49011 297.31227,460.62516 260.7958,452.51538 Z"
           id="path4442"
           inkscape:connector-curvature="0"
           sodipodi:nodetypes="cccccc" />
        <path
           style="fill:#006633;fill-opacity:1;fill-rule:evenodd;stroke:none;stroke-width:1px;stroke-linecap:butt;stroke-linejoin:miter;stroke-opacity:1"
           d="m 258.07428,467.76424 c -2.99781,-0.51856 -6.59253,6.06724 -6.59253,6.06724 43.895,4.10224 60.10633,25.57932 72.64962,45.12496 l 9.36136,0.7584 c -14.91895,-36.81594 -47.42939,-46.98236 -75.41845,-51.9506 z"
           id="path4442-8"
           inkscape:connector-curvature="0"
           sodipodi:nodetypes="ccccc" />
        <path
           style="fill:#006633;fill-opacity:1;fill-rule:evenodd;stroke:none;stroke-width:1px;stroke-linecap:butt;stroke-linejoin:miter;stroke-opacity:1"
           d="m 258.42247,483.9891 c -3.99434,-0.55836 -8.30656,6.69922 -8.30656,6.69922 32.8247,-0.97128 57.61861,28.94572 57.61861,28.94572 l 8.04288,-0.3792 c 0,0 -14.28175,-29.24465 -57.35493,-35.26574 z"
           id="path4474"
           inkscape:connector-curvature="0"
           sodipodi:nodetypes="scccs" />
        <path
           style="fill:#006633;fill-opacity:1;fill-rule:evenodd;stroke:none;stroke-width:1px;stroke-linecap:butt;stroke-linejoin:miter;stroke-opacity:1"
           d="m 449.60623,438.29477 c -8.39282,2.40961 -25.05162,8.59523 -25.05162,8.59523 l 0,10.49124 c 0,0 11.82946,-5.80732 18.06353,-7.96323 6.71899,-2.3236 20.70055,-5.30882 20.70055,-5.30882 0,0 -2.59986,-4.15809 -4.74661,-5.18243 -2.68279,-1.28005 -6.09517,-1.45619 -8.96585,-0.63199 z"
           id="path4416-7"
           inkscape:connector-curvature="0"
           sodipodi:nodetypes="sccacas" />
        <path
           style="fill:#006633;fill-opacity:1;fill-rule:evenodd;stroke:none;stroke-width:1px;stroke-linecap:butt;stroke-linejoin:miter;stroke-opacity:1"
           d="m 462.54631,452.84879 c 4.60339,-0.77418 7.3384,6.42474 7.3384,6.42474 -34.14141,2.06107 -73.46688,25.57598 -86.57113,61.11649 l -7.64733,-5.18242 c 21.76719,-41.09912 50.46539,-56.23474 86.88006,-62.35881 z"
           id="path4442-4"
           inkscape:connector-curvature="0"
           sodipodi:nodetypes="scccs" />
        <path
           style="fill:#006633;fill-opacity:1;fill-rule:evenodd;stroke:none;stroke-width:1px;stroke-linecap:butt;stroke-linejoin:miter;stroke-opacity:1"
           d="m 465.78198,468.37214 c 6.4673,-1.78257 7.25177,6.19364 7.25177,6.19364 -43.895,4.10224 -60.53384,25.35718 -73.07712,44.90283 l -8.80204,0.22213 c 14.919,-36.81595 47.1977,-47.95917 74.62739,-51.3186 z"
           id="path4442-8-7"
           inkscape:connector-curvature="0"
           sodipodi:nodetypes="ccccc" />
        <path
           style="fill:#006633;fill-opacity:1;fill-rule:evenodd;stroke:none;stroke-width:1px;stroke-linecap:butt;stroke-linejoin:miter;stroke-opacity:1"
           d="m 463.61438,484.68002 c 3.99434,-0.55835 8.30656,6.69923 8.30656,6.69923 -32.8247,-0.97129 -57.61866,28.94571 -57.61866,28.94571 l -8.04288,-0.3792 c 0,0 14.2818,-29.24465 57.35498,-35.26574 z"
           id="path4474-2"
           inkscape:connector-curvature="0"
           sodipodi:nodetypes="scccs" />
        <path
           style="fill:#006633;fill-opacity:1;fill-rule:evenodd;stroke:none;stroke-width:1px;stroke-linecap:butt;stroke-linejoin:miter;stroke-opacity:1"
           d="m 386.54985,522.57624 7.64504,7.5078 22.00284,0.17876 c 0,0 2.86895,-1.63045 2.79697,-3.93267 -0.068,-2.17513 -2.42406,-3.39638 -2.42406,-3.39638 z"
           id="path4500"
           inkscape:connector-curvature="0"
           sodipodi:nodetypes="cccscc" />
        <path
           style="fill:#006633;fill-opacity:1;fill-rule:evenodd;stroke:none;stroke-width:1px;stroke-linecap:butt;stroke-linejoin:miter;stroke-opacity:1"
           d="m 343.19214,523.60726 -1.39384,1.29282 c 0,0 -3.2706,-0.11564 -5.40749,1.2513 -2.13684,1.36695 -1.67817,5.72023 -1.67817,5.72023 l -27.18989,-0.0325 c 0,0 -3.12863,-1.21903 -3.34506,-3.90013 -0.24244,-3.00273 3.14725,-4.39489 3.14725,-4.39489 z"
           id="path4517"
           inkscape:connector-curvature="0"
           sodipodi:nodetypes="cczccscc" />
        <path
           inkscape:connector-curvature="0"
           transform="matrix(-0.69950603,-0.7146267,0.75562968,-0.65499907,0,0)"
           style="fill:#006633;fill-opacity:1;stroke:none;stroke-width:1.55487072;stroke-linecap:round;stroke-linejoin:round;stroke-miterlimit:4;stroke-dasharray:none;stroke-dashoffset:0;stroke-opacity:1"
           d="m -623.01251,-116.84364 a 5.4393334,7.1207829 0 0 1 -2.79043,6.21934 5.4393334,7.1207829 0 0 1 -5.50826,-0.16182 5.4393334,7.1207829 0 0 1 -2.5745,-6.37696 l 5.43386,0.31944 z"
           id="path4519" />
        <path
           style="fill:#006633;fill-opacity:1;fill-rule:evenodd;stroke:none;stroke-width:1px;stroke-linecap:butt;stroke-linejoin:miter;stroke-opacity:1"
           d="m 363.63914,518.37004 c 7.04792,-2.4644 8.63401,-0.75398 11.99839,0.3792 5.18091,4.43904 26.37009,23.63689 26.37009,23.63689 0,0 0.56566,4.14893 -0.79112,5.43522 -1.22871,1.16489 -5.14216,0.632 -5.14216,0.632 z"
           id="path4521"
           inkscape:connector-curvature="0"
           sodipodi:nodetypes="cccacc" />
        <path
           style="fill:#006633;fill-opacity:1;fill-rule:evenodd;stroke:none;stroke-width:1px;stroke-linecap:butt;stroke-linejoin:miter;stroke-opacity:1"
           d="m 361.39769,520.39244 10.8117,10.61765 c -4.56555,-0.19464 -9.99379,0.90895 -11.99837,-1.89601 -0.98252,-1.94886 1.18667,-8.72164 1.18667,-8.72164 z"
           id="path4523"
           inkscape:connector-curvature="0"
           sodipodi:nodetypes="cccc" />
        <path
           style="fill:#006633;fill-opacity:1;fill-rule:evenodd;stroke:none;stroke-width:1px;stroke-linecap:butt;stroke-linejoin:miter;stroke-opacity:1"
           d="m 347.28966,526.83887 5.27404,5.56161 c 0,0 -2.64233,-0.80974 -3.69182,0.1264 -1.04945,0.93615 -0.52737,4.67683 -0.52737,4.67683 0,0 -4.45162,-2.08994 -7.77919,-0.50561 -4.54465,2.16382 -14.10803,13.52485 -14.10803,13.52485 0,0 -3.64267,-0.0497 -4.87843,-1.264 -1.23576,-1.21434 -0.92298,-4.04481 -0.92298,-4.04481 0,0 6.2372,-8.68202 9.22954,-9.73284 2.99235,-1.05082 3.7588,-0.1194 5.27404,-0.75841 1.5152,-0.639 1.54303,-3.20141 3.16439,-3.91841 1.62131,-0.71699 5.53773,0.2528 5.53773,0.2528 z"
           id="path4525"
           inkscape:connector-curvature="0"
           sodipodi:nodetypes="cczcsczczczcc" />
        <path
           style="fill:#006633;fill-opacity:1;fill-rule:evenodd;stroke:none;stroke-width:1px;stroke-linecap:butt;stroke-linejoin:miter;stroke-opacity:1"
           d="m 308.98054,534.73173 8.9503,0 c -0.99838,19.02611 -2.27481,28.60069 -11.93374,47.19192 l -7.64509,-3.7539 c 8.9825,-15.05492 10.40447,-26.44937 10.62853,-43.43802 z"
           id="path4527"
           inkscape:connector-curvature="0"
           sodipodi:nodetypes="ccccc" />
        <path
           style="fill:#006633;fill-opacity:1;fill-rule:evenodd;stroke:none;stroke-width:1px;stroke-linecap:butt;stroke-linejoin:miter;stroke-opacity:1"
           d="m 325.0165,553.85876 8.57738,-5.54147 c 0,0 -0.861,16.89656 -2.42406,23.95347 -1.56305,7.05691 -6.33978,18.23325 -6.33978,18.23325 l -7.83155,-2.86012 c 0,0 4.6891,-13.10621 5.96687,-18.76952 1.27776,-5.66331 2.05114,-15.01561 2.05114,-15.01561 z"
           id="path4529"
           inkscape:connector-curvature="0"
           sodipodi:nodetypes="cczcczc" />
        <path
           style="fill:#006633;fill-opacity:1;fill-rule:evenodd;stroke:none;stroke-width:1px;stroke-linecap:butt;stroke-linejoin:miter;stroke-opacity:1"
           d="m 341.42538,543.84835 c 0.74584,-0.17876 8.01796,-4.29017 8.01796,-4.29017 2.03613,21.04818 1.9438,36.97493 -4.28869,57.38108 l -8.9503,-3.03887 c 5.31837,-17.40149 6.13257,-31.9435 5.22103,-50.05204 z"
           id="path4531"
           inkscape:connector-curvature="0"
           sodipodi:nodetypes="ccccc" />
        <path
           style="fill:#006633;fill-opacity:1;fill-rule:evenodd;stroke:none;stroke-width:1px;stroke-linecap:butt;stroke-linejoin:miter;stroke-opacity:1"
           d="m 415.07065,533.98697 -8.9503,0 c 0.99838,19.02611 2.27476,28.60068 11.93374,47.19191 l 7.64504,-3.75389 c -8.98245,-15.05492 -10.40448,-26.44938 -10.62848,-43.43802 z"
           id="path4527-8"
           inkscape:connector-curvature="0"
           sodipodi:nodetypes="ccccc" />
        <path
           style="fill:#006633;fill-opacity:1;fill-rule:evenodd;stroke:none;stroke-width:1px;stroke-linecap:butt;stroke-linejoin:miter;stroke-opacity:1"
           d="m 399.03469,553.114 -8.57739,-5.54148 c 0,0 0.86101,16.89656 2.42406,23.95348 1.56305,7.05691 6.33978,18.23324 6.33978,18.23324 l 7.83155,-2.86012 c 0,0 -4.68909,-13.10621 -5.96691,-18.76952 -1.27777,-5.6633 -2.05109,-15.0156 -2.05109,-15.0156 z"
           id="path4529-6"
           inkscape:connector-curvature="0"
           sodipodi:nodetypes="cczcczc" />
        <path
           style="fill:#006633;fill-opacity:1;fill-rule:evenodd;stroke:none;stroke-width:1px;stroke-linecap:butt;stroke-linejoin:miter;stroke-opacity:1"
           d="m 382.6258,543.10359 c -0.74588,-0.17876 -8.018,-4.29017 -8.018,-4.29017 -2.03614,21.04817 -1.94375,36.97493 4.28869,57.38108 l 8.95029,-3.03888 c -5.31832,-17.40148 -6.13251,-31.94349 -5.22098,-50.05203 z"
           id="path4531-3"
           inkscape:connector-curvature="0"
           sodipodi:nodetypes="ccccc" />
        <path
           inkscape:connector-curvature="0"
           style="fill:#ffad00;fill-opacity:1;stroke:none;stroke-width:0.69999999;stroke-linecap:round;stroke-linejoin:round;stroke-miterlimit:4;stroke-dasharray:none;stroke-dashoffset:0;stroke-opacity:1"
           d="m 356.67023,538.13556 10.44202,0 0,63.10132 -10.44202,0 z"
           id="rect4554" />
        <path
           style="fill:#ffad00;fill-opacity:1;fill-rule:evenodd;stroke:none;stroke-width:1px;stroke-linecap:butt;stroke-linejoin:miter;stroke-opacity:1"
           d="m 339.18778,491.82998 c 5.85051,6.7908 10.77204,13.95657 14.54426,21.98715 l 6.15337,0.17875 c 0,0 1.58777,1.51593 2.79692,1.60882 1.20921,0.0929 3.72932,-1.43006 3.72932,-1.43006 l 6.33979,-0.53626 c 3.36571,-8.28602 7.895,-15.8104 13.23898,-23.05969 -3.69369,-0.99771 -7.30744,-5.37564 -7.45858,-5.36273 -3.59115,6.65578 -6.17309,8.77603 -10.0691,12.87052 l -0.55937,-10.90419 -10.81493,-0.35751 0,11.61922 c -3.64705,-3.27331 -7.22552,-7.43613 -9.69619,-12.33426 0,0 -3.74958,4.8596 -8.20447,5.72024 z"
           id="path4556"
           inkscape:connector-curvature="0"
           sodipodi:nodetypes="ccczcccccccccc" />
        <path
           inkscape:connector-curvature="0"
           style="fill:none;fill-opacity:1;stroke:none;stroke-width:0.93620014;stroke-linecap:round;stroke-linejoin:round;stroke-miterlimit:4;stroke-dasharray:none;stroke-dashoffset:0;stroke-opacity:1"
           d="m 233.62109,501.83106 a 128.56508,128.56508 0 0 1 60.15576,-125.23335 128.56508,128.56508 0 0 1 138.90789,2.58916 128.56508,128.56508 0 0 1 55.44705,127.38811"
           id="path4628" />
        <g
           transform="matrix(0.49537298,0,0,0.49537298,176.82945,217.22596)"
           style="font-style:normal;font-variant:normal;font-weight:bold;font-stretch:normal;font-size:52.5px;line-height:125%;font-family:'Swis721 BT';-inkscape-font-specification:'Swis721 BT, Bold';text-align:start;letter-spacing:4px;word-spacing:3px;writing-mode:lr-tb;text-anchor:start;fill:#000000;fill-opacity:1;stroke:none;stroke-width:1px;stroke-linecap:butt;stroke-linejoin:miter;stroke-opacity:1"
           id="text4560">
          <path
             inkscape:connector-curvature="0"
             d="m 113.51834,565.97932 -0.39664,-7.97014 c -0.26877,-5.40082 -0.89179,-9.46988 -4.01082,-12.99421 -3.34182,-3.77606 -8.74736,-5.71478 -15.773667,-5.36511 -12.741732,0.6341 -18.594816,6.6024 -18.020732,18.13813 l 0.501019,10.06754 c 0.190491,3.82776 1.912776,4.63565 6.16002,4.42429 l 25.85051,-1.28647 c 4.24724,-0.21137 5.8808,-1.18627 5.69031,-5.01403 z m -31.237538,-1.33652 -0.357497,-7.18361 c -0.318356,-6.39708 3.418321,-9.47411 11.807938,-9.89163 8.494487,-0.42273 12.158987,2.44367 12.516487,9.62728 l 0.31053,6.23978 -24.277458,1.20818 z"
             style="font-style:normal;font-variant:normal;font-weight:bold;font-stretch:normal;font-size:52.5px;font-family:'Swiss 721 Rounded';-inkscape-font-specification:'Swiss 721 Rounded Bold';letter-spacing:2px;word-spacing:3px"
             id="path5878" />
          <path
             inkscape:connector-curvature="0"
             d="m 108.12648,505.32229 -1.65741,16.92906 -9.718533,-0.95147 1.401631,-14.31655 c 0.271119,-2.76926 -0.745384,-4.24031 -2.783142,-4.43981 -2.142257,-0.20973 -3.372513,1.04135 -3.643631,3.81061 l -1.401631,14.31655 -7.994279,-0.78266 1.56021,-15.93631 c 0.271118,-2.76926 -0.740269,-4.29256 -2.830277,-4.49717 -2.142257,-0.20974 -3.429879,1.08848 -3.700997,3.85774 l -1.846675,18.86232 c -0.373427,3.81426 1.211617,4.86621 5.443882,5.28056 l 25.759342,2.52191 c 4.23227,0.41435 5.99124,-0.31021 6.36466,-4.12447 l 1.94387,-19.85507 c 0.27112,-2.76926 -0.79252,-4.29767 -3.03928,-4.51764 -2.29901,-0.22508 -3.58663,1.07314 -3.85774,3.8424 z"
             style="font-style:normal;font-variant:normal;font-weight:bold;font-stretch:normal;font-size:52.5px;font-family:'Swiss 721 Rounded';-inkscape-font-specification:'Swiss 721 Rounded Bold';letter-spacing:2px;word-spacing:3px"
             id="path5880" />
          <path
             inkscape:connector-curvature="0"
             d="m 115.11013,486.14207 -9.50218,-2.25029 2.20189,-9.29783 c 1.71797,-7.25436 -1.62967,-12.2554 -9.190547,-14.04595 -7.714135,-1.82685 -12.744764,1.19007 -14.583709,8.95529 l -2.782615,11.75001 c -0.883178,3.72935 0.545934,4.98497 4.68398,5.96494 l 27.382631,6.4847 c 2.70761,0.64121 4.33833,-0.32141 4.93114,-2.82467 0.60492,-2.55435 -0.43298,-4.09499 -3.14059,-4.7362 z m -26.757486,-6.39061 1.826847,-7.71414 c 0.822686,-3.47391 3.085259,-4.82642 6.559174,-4.00373 3.780435,0.89527 4.889605,3.04627 3.970135,6.92888 l -1.730062,7.30544 -10.626094,-2.51645 z"
             style="font-style:normal;font-variant:normal;font-weight:bold;font-stretch:normal;font-size:52.5px;font-family:'Swiss 721 Rounded';-inkscape-font-specification:'Swiss 721 Rounded Bold';letter-spacing:2px;word-spacing:3px"
             id="path5882" />
          <path
             inkscape:connector-curvature="0"
             d="m 124.80074,456.32039 -4.41303,-3.5732 5.30452,-13.65325 5.68687,0.29446 c 2.0388,0.11623 3.289,-0.63715 3.99246,-2.4478 0.81755,-2.10426 0.0476,-4.03676 -1.81195,-4.75924 -0.63617,-0.24716 -1.26144,-0.37744 -1.99267,-0.37992 l -31.31288,-0.732 c -3.071754,-0.067 -4.286734,0.30584 -5.655643,3.82926 -1.349896,3.47449 -0.890128,4.61061 1.64679,6.77903 l 23.571933,20.36639 c 0.54111,0.49185 1.09032,0.81787 1.72649,1.06504 1.85958,0.72248 3.71322,-0.1344 4.53076,-2.23866 0.70347,-1.81065 0.30884,-3.2594 -1.27365,-4.55011 z m -22.66612,-18.49374 16.8758,0.92422 -3.80253,9.78728 -13.07327,-10.7115 z"
             style="font-style:normal;font-variant:normal;font-weight:bold;font-stretch:normal;font-size:52.5px;font-family:'Swiss 721 Rounded';-inkscape-font-specification:'Swiss 721 Rounded Bold';letter-spacing:2px;word-spacing:3px"
             id="path5884" />
          <path
             inkscape:connector-curvature="0"
             d="m 140.241,418.11614 -9.56938,-5.47517 4.09334,-7.15426 c 2.52901,-4.42014 4.45604,-3.55952 8.57693,-1.56465 5.01277,2.44468 7.71446,3.74852 9.85238,0.0119 1.19933,-2.09615 0.699,-4.07602 -1.12374,-5.11891 -0.77467,-0.44322 -2.03132,-0.67834 -3.5743,-1.25873 -1.1068,-0.39132 -2.51285,-1.31677 -4.53101,-2.22953 -3.11839,-1.42128 -5.55394,-1.18168 -7.78208,0.80972 0.79648,-3.71782 -0.94688,-7.01375 -4.95691,-9.30811 -6.33402,-3.62404 -11.25139,-1.9011 -15.31866,5.20759 l -6.75271,11.80224 c -1.90328,3.3265 -0.88831,4.93548 2.80274,7.04733 l 24.42471,13.97472 c 2.41513,1.38183 4.25172,0.92049 5.52926,-1.31236 1.30361,-2.27843 0.74456,-4.04995 -1.67057,-5.43178 z m -23.92346,-13.68793 4.71908,-8.2479 c 1.77291,-3.09865 4.1892,-3.83317 7.01444,-2.21669 3.00752,1.72077 3.41648,4.07176 1.46106,7.4894 l -4.53656,7.92892 -8.65802,-4.95373 z"
             style="font-style:normal;font-variant:normal;font-weight:bold;font-stretch:normal;font-size:52.5px;font-family:'Swiss 721 Rounded';-inkscape-font-specification:'Swiss 721 Rounded Bold';letter-spacing:2px;word-spacing:3px"
             id="path5886" />
          <path
             inkscape:connector-curvature="0"
             d="m 135.74541,373.42467 4.83745,-6.21407 21.58355,16.80208 c 2.19563,1.70923 4.07898,1.51205 5.65922,-0.51788 1.61248,-2.07136 1.30937,-3.9041 -0.88627,-5.61334 l -21.58355,-16.80208 4.83745,-6.21407 c 1.54799,-1.9885 1.45201,-3.66 -0.28793,-5.01448 -1.73994,-1.35449 -3.42533,-1.06973 -4.97331,0.91877 l -14.44786,18.55936 c -1.54798,1.98851 -1.41058,3.69225 0.32936,5.04674 1.78137,1.38673 3.38391,1.03748 4.93189,-0.95103 z"
             style="font-style:normal;font-variant:normal;font-weight:bold;font-stretch:normal;font-size:52.5px;font-family:'Swiss 721 Rounded';-inkscape-font-specification:'Swiss 721 Rounded Bold';letter-spacing:2px;word-spacing:3px"
             id="path5888" />
          <path
             inkscape:connector-curvature="0"
             d="m 183.64397,357.993 -17.95618,-19.2197 22.31891,14.35346 c 3.16353,2.00189 5.27455,2.18508 7.34613,0.24968 2.14831,-2.00708 2.02964,-3.97977 0.21132,-7.31029 l -12.80497,-23.24196 17.95619,19.2197 c 2.18628,2.34012 3.95959,2.62326 5.83936,0.86707 1.84141,-1.72036 1.60765,-3.58553 -0.50695,-5.84893 l -19.24645,-20.60075 c -2.9031,-3.10738 -4.74053,-3.68985 -7.50264,-1.10932 l -2.2634,2.1146 c -2.41685,2.25796 -1.6995,4.10242 0.39798,7.96245 l 11.4324,21.00378 -20.65511,-13.034 c -3.56283,-2.27547 -4.94747,-3.06543 -7.74795,-0.44906 l -1.99485,1.86372 c -2.80048,2.61637 -2.30574,4.45327 0.59735,7.56064 l 19.24645,20.60076 c 2.15044,2.30176 3.92124,2.6591 5.83937,0.86707 1.84141,-1.72035 1.64349,-3.54716 -0.50696,-5.84892 z"
             style="font-style:normal;font-variant:normal;font-weight:bold;font-stretch:normal;font-size:52.5px;font-family:'Swiss 721 Rounded';-inkscape-font-specification:'Swiss 721 Rounded Bold';letter-spacing:2px;word-spacing:3px"
             id="path5890" />
          <path
             inkscape:connector-curvature="0"
             d="m 233.53083,314.86818 -14.13807,9.45808 -5.42963,-8.1163 11.95626,-7.9985 c 2.31271,-1.54715 2.80503,-3.26612 1.66656,-4.96793 -1.19686,-1.78907 -2.94442,-1.94645 -5.25713,-0.39929 l -11.95626,7.99849 -4.46632,-6.6763 13.30898,-8.90344 c 2.31271,-1.54716 2.84867,-3.29532 1.681,-5.04076 -1.19685,-1.78908 -3.01724,-1.9609 -5.32995,-0.41374 l -15.75259,10.53817 c -3.18543,2.13098 -2.99311,4.02359 -0.62859,7.55811 l 14.39146,21.51255 c 2.36452,3.53451 4.04046,4.43461 7.22589,2.30362 l 16.58168,-11.09281 c 2.31271,-1.54715 2.81947,-3.33895 1.56423,-5.2153 -1.28443,-1.91999 -3.10482,-2.0918 -5.41752,-0.54465 z"
             style="font-style:normal;font-variant:normal;font-weight:bold;font-stretch:normal;font-size:52.5px;font-family:'Swiss 721 Rounded';-inkscape-font-specification:'Swiss 721 Rounded Bold';letter-spacing:2px;word-spacing:3px"
             id="path5892" />
          <path
             inkscape:connector-curvature="0"
             d="m 252.49433,307.61211 -9.30764,-19.69932 21.37916,14.40216 c 2.89232,1.94313 4.28502,2.67866 7.32299,1.24327 2.94303,-1.39054 3.07976,-3.31323 1.30795,-7.06322 l -12.08872,-25.58537 c -1.34568,-2.8481 -3.01797,-3.68379 -5.43885,-2.53996 -2.37341,1.1214 -2.83719,2.96636 -1.49151,5.81445 l 9.33007,19.74678 -19.87432,-13.42928 c -3.74828,-2.52581 -5.43255,-3.87843 -8.37558,-2.48789 -3.46518,1.63724 -3.55444,3.5375 -1.73777,7.38243 l 12.04386,25.49044 c 1.36811,2.89556 3.01797,3.68379 5.43885,2.53996 2.37341,-1.12141 2.81477,-3.01383 1.49151,-5.81445 z"
             style="font-style:normal;font-variant:normal;font-weight:bold;font-stretch:normal;font-size:52.5px;font-family:'Swiss 721 Rounded';-inkscape-font-specification:'Swiss 721 Rounded Bold';letter-spacing:2px;word-spacing:3px"
             id="path5894" />
          <path
             inkscape:connector-curvature="0"
             d="m 276.01377,268.24789 7.5308,-2.30277 7.99831,26.15695 c 0.81364,2.66088 2.46792,3.58242 4.92798,2.83018 2.51027,-0.76759 3.31605,-2.44137 2.5024,-5.10225 l -7.99831,-26.15696 7.53079,-2.30277 c 2.40985,-0.73689 3.29239,-2.15965 2.64762,-4.26827 -0.64478,-2.10862 -2.18745,-2.84469 -4.5973,-2.1078 l -22.49197,6.87762 c -2.40986,0.73689 -3.27704,2.20985 -2.63226,4.31847 0.66012,2.15883 2.17209,2.79449 4.58194,2.0576 z"
             style="font-style:normal;font-variant:normal;font-weight:bold;font-stretch:normal;font-size:52.5px;font-family:'Swiss 721 Rounded';-inkscape-font-specification:'Swiss 721 Rounded Bold';letter-spacing:2px;word-spacing:3px"
             id="path5896" />
          <path
             inkscape:connector-curvature="0"
             d="m 351.06867,245.15401 c -11.25926,0.79794 -17.83954,8.9485 -16.97481,21.1504 0.86474,12.2019 8.52873,19.34298 19.78799,18.54505 11.25927,-0.79794 17.88821,-9.00458 17.02718,-21.15411 -0.86103,-12.14953 -8.5811,-19.33927 -19.84036,-18.54134 z m 0.47876,6.75556 c 6.59845,-0.46763 10.91249,3.96349 11.5063,12.34248 0.59381,8.37898 -3.05219,13.37422 -9.65064,13.84185 -6.54608,0.46391 -10.80775,-3.97092 -11.40156,-12.3499 -0.59381,-8.37899 2.99982,-13.37051 9.5459,-13.83443 z"
             style="font-style:normal;font-variant:normal;font-weight:bold;font-stretch:normal;font-size:52.5px;font-family:'Swiss 721 Rounded';-inkscape-font-specification:'Swiss 721 Rounded Bold';letter-spacing:2px;word-spacing:3px"
             id="path5898" />
          <path
             inkscape:connector-curvature="0"
             d="m 388.35821,279.93772 0.95304,-12.35329 12.66736,0.97727 c 2.77426,0.21403 4.2764,-0.82851 4.43793,-2.92229 0.16557,-2.14613 -1.15888,-3.40674 -3.93314,-3.62077 l -12.66736,-0.97727 0.65824,-8.53214 14.97052,1.15495 c 2.77425,0.21403 4.2764,-0.82851 4.43793,-2.92229 0.16557,-2.14612 -1.15889,-3.40674 -3.93315,-3.62077 l -17.9018,-1.38109 c -3.82114,-0.2948 -4.84023,1.31157 -5.16733,5.55147 l -2.16453,28.05663 c -0.20999,2.72191 1.04193,4.24021 3.50212,4.43001 2.56488,0.19788 3.92614,-1.06616 4.14017,-3.84042 z"
             style="font-style:normal;font-variant:normal;font-weight:bold;font-stretch:normal;font-size:52.5px;font-family:'Swiss 721 Rounded';-inkscape-font-specification:'Swiss 721 Rounded Bold';letter-spacing:2px;word-spacing:3px"
             id="path5900" />
          <path
             inkscape:connector-curvature="0"
             d="m 438.70134,289.19617 3.21129,-4.68297 14.03154,4.20301 0.15829,5.69229 c 0.0461,2.04159 0.89645,3.22798 2.75726,3.78536 2.16257,0.64778 4.02778,-0.27324 4.60024,-2.18434 0.19584,-0.6538 0.27603,-1.28744 0.2204,-2.01656 l -1.75811,-31.27205 c -0.1773,-3.06736 -0.64545,-4.24889 -4.26649,-5.33353 -3.57075,-1.06959 -4.66675,-0.52101 -6.62676,2.18017 l -18.42924,25.11552 c -0.4473,0.57848 -0.72866,1.15185 -0.9245,1.80565 -0.57245,1.91111 0.42899,3.69081 2.59155,4.33858 1.86082,0.55739 3.27364,0.0489 4.43453,-1.63113 z m 16.63448,-24.06379 0.41947,16.89588 -10.05845,-3.01291 9.63898,-13.88297 z"
             style="font-style:normal;font-variant:normal;font-weight:bold;font-stretch:normal;font-size:52.5px;font-family:'Swiss 721 Rounded';-inkscape-font-specification:'Swiss 721 Rounded Bold';letter-spacing:2px;word-spacing:3px"
             id="path5902" />
          <path
             inkscape:connector-curvature="0"
             d="m 499.1658,300.2325 c -2.91136,4.25179 -7.44682,5.4545 -11.84964,3.34404 -5.77573,-2.76856 -7.45068,-8.86945 -3.84248,-16.39684 3.6082,-7.52739 9.31862,-10.08815 14.85764,-7.43306 2.88787,1.38428 4.14028,3.26545 4.82536,6.33018 0.50471,2.10496 0.99574,3.38829 2.79474,4.25063 1.65697,0.79426 3.75802,0.0548 4.71113,-1.93358 1.06658,-2.22508 0.40224,-5.45452 -2.23874,-8.93281 -1.82443,-2.38824 -4.3226,-4.34258 -7.49452,-5.86302 -9.75247,-4.67478 -19.50418,-0.8491 -24.76898,10.13427 -5.21942,10.88867 -2.09018,21.12164 7.37824,25.66026 4.30813,2.06507 8.18158,2.00053 12.37196,-0.18268 l -0.70467,2.8061 c -0.39478,1.6738 0.0716,2.88709 1.44451,3.54519 1.75166,0.83964 2.93835,0.18586 3.93684,-1.89719 l 6.24061,-13.01908 c 1.18004,-2.46179 0.28954,-3.76194 -2.55099,-5.12352 l -7.52739,-3.60821 c -1.84634,-0.88503 -3.4818,-0.38814 -4.32144,1.36352 -0.88503,1.84634 -0.22147,3.61991 1.53019,4.45956 l 5.20763,2.49624 z"
             style="font-style:normal;font-variant:normal;font-weight:bold;font-stretch:normal;font-size:52.5px;font-family:'Swiss 721 Rounded';-inkscape-font-specification:'Swiss 721 Rounded Bold';letter-spacing:2px;word-spacing:3px"
             id="path5904" />
          <path
             inkscape:connector-curvature="0"
             d="m 516.16253,322.21115 6.27395,-9.06577 6.77774,4.69052 c 4.18752,2.89797 3.16516,4.74429 0.82498,8.67936 -2.86466,4.78519 -4.39491,7.3654 -0.85494,9.81523 1.98584,1.37429 4.00126,1.04522 5.1963,-0.68159 0.50789,-0.7339 0.84967,-1.96582 1.55997,-3.45348 0.48459,-1.06925 1.52696,-2.39095 2.60907,-4.32361 1.68292,-2.98533 1.6526,-5.43245 -0.14083,-7.82282 3.63603,1.11169 7.06905,-0.34324 9.69814,-4.14223 4.15275,-6.00068 2.85691,-11.04745 -3.87766,-15.70809 l -11.18112,-7.73787 c -3.15143,-2.18095 -4.84136,-1.30739 -7.26131,2.18941 l -16.0135,23.1393 c -1.58343,2.28803 -1.28094,4.15736 0.8344,5.62128 2.15852,1.4938 3.97138,1.08839 5.55481,-1.19964 z m 15.68487,-22.66443 7.81383,5.40755 c 2.93558,2.03156 3.46064,4.50184 1.60833,7.1784 -1.97181,2.84925 -4.34918,3.05553 -7.58695,0.81483 l -7.51164,-5.19841 5.67643,-8.20237 z"
             style="font-style:normal;font-variant:normal;font-weight:bold;font-stretch:normal;font-size:52.5px;font-family:'Swiss 721 Rounded';-inkscape-font-specification:'Swiss 721 Rounded Bold';letter-spacing:2px;word-spacing:3px"
             id="path5906" />
          <path
             inkscape:connector-curvature="0"
             d="m 562.1169,318.65036 -19.9914,22.96838 c -1.8268,2.09883 -1.73295,3.99015 0.20748,5.67908 1.98003,1.72339 3.82661,1.52101 5.65341,-0.57783 l 19.9914,-22.96838 c 1.82681,-2.09883 1.73296,-3.99014 -0.20748,-5.67907 -1.98003,-1.7234 -3.82661,-1.52101 -5.65341,0.57782 z"
             style="font-style:normal;font-variant:normal;font-weight:bold;font-stretch:normal;font-size:52.5px;font-family:'Swiss 721 Rounded';-inkscape-font-specification:'Swiss 721 Rounded Bold';letter-spacing:2px;word-spacing:3px"
             id="path5908" />
          <path
             inkscape:connector-curvature="0"
             d="m 565.68277,342.56598 c -8.83639,8.07459 -9.72914,17.99346 -2.32743,26.09348 3.43524,3.75935 6.91526,5.69983 11.64884,6.21035 3.06974,0.32409 5.74458,-0.48444 7.02353,-1.65313 1.43398,-1.31035 1.4988,-3.57423 0.0822,-5.12448 -1.06244,-1.16268 -2.2425,-1.36448 -4.1068,-1.2255 -0.67088,0.0441 -1.5068,0.45237 -2.73564,0.5085 -2.19639,0.0869 -4.45226,-0.98094 -6.43549,-3.15128 -4.35603,-4.767 -3.45995,-10.6352 2.66351,-16.23075 6.08471,-5.56014 12.15471,-5.84411 16.192,-1.42591 1.91241,2.09283 2.77639,4.36139 2.47569,6.91194 -0.0755,0.85129 -0.56397,1.79547 -0.57533,2.87262 -0.0314,1.52218 0.32474,2.6902 1.21011,3.65911 1.52284,1.66651 3.56422,1.72131 5.23073,0.19847 1.43398,-1.31036 2.33138,-3.90834 2.05876,-6.93064 -0.36416,-4.2899 -1.95181,-7.81737 -4.99749,-11.15039 -7.68503,-8.41008 -17.83443,-8.30987 -27.40719,0.43761 z"
             style="font-style:normal;font-variant:normal;font-weight:bold;font-stretch:normal;font-size:52.5px;font-family:'Swiss 721 Rounded';-inkscape-font-specification:'Swiss 721 Rounded Bold';letter-spacing:2px;word-spacing:3px"
             id="path5910" />
          <path
             inkscape:connector-curvature="0"
             d="m 608.70647,367.92506 -17.336,11.47549 c -7.79245,5.15818 -9.01033,12.44923 -3.62032,20.5919 5.33205,8.05512 12.5195,9.78229 20.31195,4.62411 l 17.336,-11.4755 c 2.32023,-1.53586 2.73399,-3.38374 1.31404,-5.52886 -1.44893,-2.18889 -3.28263,-2.48611 -5.60286,-0.95025 l -16.63556,11.01184 c -4.77178,3.15866 -8.16359,2.88546 -11.06144,-1.49232 -2.86887,-4.33401 -1.75157,-7.592 2.97643,-10.72168 l 16.63556,-11.01184 c 2.32023,-1.53586 2.70501,-3.42753 1.28506,-5.57264 -1.44893,-2.18889 -3.28263,-2.48611 -5.60286,-0.95025 z"
             style="font-style:normal;font-variant:normal;font-weight:bold;font-stretch:normal;font-size:52.5px;font-family:'Swiss 721 Rounded';-inkscape-font-specification:'Swiss 721 Rounded Bold';letter-spacing:2px;word-spacing:3px"
             id="path5912" />
          <path
             inkscape:connector-curvature="0"
             d="m 603.46105,424.77374 7.60208,15.56805 c 1.40523,2.87773 2.9466,3.76096 5.25822,2.63216 1.88703,-0.92146 2.30512,-2.93679 0.969,-5.673 l -6.26596,-12.83184 24.43711,-11.93296 c 2.50032,-1.22094 3.15098,-2.99929 2.02219,-5.31091 -1.08272,-2.21727 -3.07281,-2.82295 -5.43161,-1.67112 l -25.33345,12.37066 c -3.82125,1.86596 -4.93925,3.40512 -3.25758,6.84896 z"
             style="font-style:normal;font-variant:normal;font-weight:bold;font-stretch:normal;font-size:52.5px;font-family:'Swiss 721 Rounded';-inkscape-font-specification:'Swiss 721 Rounded Bold';letter-spacing:2px;word-spacing:3px"
             id="path5914" />
          <path
             inkscape:connector-curvature="0"
             d="m 642.82305,436.2211 2.58554,7.43845 -25.83623,8.98044 c -2.62826,0.91356 -3.48667,2.60146 -2.64206,5.03136 0.86185,2.47948 2.56487,3.22147 5.19312,2.30792 l 25.83624,-8.98044 2.58554,7.43845 c 0.82737,2.38031 2.28244,3.20849 4.36521,2.48454 2.08276,-0.72395 2.76005,-2.29332 1.93268,-4.67363 l -7.72215,-22.21618 c -0.82737,-2.38031 -2.33203,-3.19125 -4.41479,-2.4673 -2.13236,0.74119 -2.71047,2.27608 -1.8831,4.65639 z"
             style="font-style:normal;font-variant:normal;font-weight:bold;font-stretch:normal;font-size:52.5px;font-family:'Swiss 721 Rounded';-inkscape-font-specification:'Swiss 721 Rounded Bold';letter-spacing:2px;word-spacing:3px"
             id="path5916" />
          <path
             inkscape:connector-curvature="0"
             d="m 657.56386,471.66903 -20.40585,3.97814 c -9.17232,1.78815 -13.08447,8.06013 -11.21595,17.64469 1.84842,9.4815 7.83001,13.82469 17.00234,12.03654 l 20.40584,-3.97814 c 2.73109,-0.53243 3.81972,-2.08187 3.32748,-4.60683 -0.50229,-2.5765 -2.08317,-3.55203 -4.81426,-3.0196 l -19.58136,3.81741 c -5.61676,1.09499 -8.64662,-0.45387 -9.6512,-5.60686 -0.99454,-5.10147 1.28319,-7.68504 6.84842,-8.76999 l 19.58136,-3.8174 c 2.73109,-0.53243 3.80968,-2.1334 3.31743,-4.65837 -0.50229,-2.57649 -2.08316,-3.55202 -4.81425,-3.01959 z"
             style="font-style:normal;font-variant:normal;font-weight:bold;font-stretch:normal;font-size:52.5px;font-family:'Swiss 721 Rounded';-inkscape-font-specification:'Swiss 721 Rounded Bold';letter-spacing:2px;word-spacing:3px"
             id="path5918" />
          <path
             inkscape:connector-curvature="0"
             d="m 634.93973,525.08533 11.01628,-0.43845 0.32778,8.23598 c 0.20252,5.08847 -1.88746,5.38182 -6.43882,5.87821 -5.54599,0.58852 -8.52777,0.91736 -8.35657,5.21896 0.096,2.41308 1.57088,3.82555 3.66922,3.74204 0.89179,-0.0355 2.08164,-0.50318 3.69741,-0.8302 1.14573,-0.25576 2.82858,-0.21766 5.02349,-0.51518 3.39727,-0.45046 5.33432,-1.94617 6.16583,-4.81651 1.29815,3.5737 4.52499,5.44185 9.14134,5.25812 7.29172,-0.2902 10.54494,-4.3603 10.21924,-12.54382 l -0.54075,-13.58674 c -0.15241,-3.82947 -1.86657,-4.65445 -6.11571,-4.48534 l -28.11774,1.11907 c -2.7803,0.11066 -4.09202,1.4764 -3.98972,4.04687 0.10439,2.62292 1.51842,3.82764 4.29872,3.71699 z m 27.54069,-1.09611 0.3779,9.49498 c 0.14197,3.56718 -1.51608,5.47212 -4.76851,5.60157 -3.46226,0.13779 -5.05663,-1.63771 -5.21321,-5.57209 l -0.36329,-9.12777 9.96711,-0.39669 z"
             style="font-style:normal;font-variant:normal;font-weight:bold;font-stretch:normal;font-size:52.5px;font-family:'Swiss 721 Rounded';-inkscape-font-specification:'Swiss 721 Rounded Bold';letter-spacing:2px;word-spacing:3px"
             id="path5920" />
          <path
             inkscape:connector-curvature="0"
             d="m 635.96615,582.27633 1.80525,-16.91394 9.70985,1.03635 -1.52666,14.30376 c -0.2953,2.76678 0.70831,4.24665 2.74425,4.46395 2.14034,0.22844 3.38148,-1.01184 3.67678,-3.77863 l 1.52666,-14.30376 7.98714,0.85248 -1.69938,15.92207 c -0.29531,2.76678 0.70273,4.29886 2.79087,4.52173 2.14035,0.22844 3.43926,-1.05848 3.73456,-3.82526 l 2.0114,-18.84547 c 0.40674,-3.81085 -1.16905,-4.87661 -5.39753,-5.32792 l -25.73633,-2.74687 c -4.22848,-0.45131 -5.99372,0.25785 -6.40045,4.06871 l -2.11727,19.83733 c -0.2953,2.76678 0.75494,4.30443 2.99969,4.54401 2.29696,0.24516 3.59587,-1.04176 3.89117,-3.80854 z"
             style="font-style:normal;font-variant:normal;font-weight:bold;font-stretch:normal;font-size:52.5px;font-family:'Swiss 721 Rounded';-inkscape-font-specification:'Swiss 721 Rounded Bold';letter-spacing:2px;word-spacing:3px"
             id="path5922" />
        </g>
        <path
           inkscape:connector-curvature="0"
           transform="scale(-1,1)"
           style="fill:none;fill-opacity:1;stroke:none;stroke-width:2.60646081;stroke-linecap:round;stroke-linejoin:round;stroke-miterlimit:4;stroke-dasharray:none;stroke-dashoffset:0;stroke-opacity:1"
           d="M -320.90493,631.15715 A 148.90143,148.90143 0 0 1 -439.74687,615.95061"
           id="path4632" />
        <g
           transform="matrix(0.49537298,0,0,0.49537298,176.82945,217.22596)"
           style="font-style:normal;font-variant:normal;font-weight:bold;font-stretch:normal;font-size:40px;line-height:125%;font-family:'Swis721 BT';-inkscape-font-specification:'Swis721 BT, Bold';text-align:start;letter-spacing:0px;word-spacing:0px;writing-mode:lr-tb;text-anchor:start;fill:#000000;fill-opacity:1;stroke:none;stroke-width:1px;stroke-linecap:butt;stroke-linejoin:miter;stroke-opacity:1"
           id="text4572">
          <path
             inkscape:connector-curvature="0"
             d="m 311.64685,811.50627 -7.13086,-1.67184 q -1.48322,-0.34774 -2.05764,-1.23469 -0.56774,-0.91548 -0.22669,-2.37018 0.24743,-1.05536 0.87099,-1.66145 0.63025,-0.63462 1.44719,-0.65372 0.29861,0.01 2.34875,0.24975 2.05014,0.23992 3.68225,0.0809 1.78142,-0.15408 3.98059,-2.3467 0.23802,-0.24511 0.35702,-0.36767 0.11901,-0.12255 0.43413,-0.43986 1.86222,-1.91052 3.88738,-1.43572 1.68288,0.39455 2.35312,1.51461 0.70544,1.09822 0.3042,2.80962 l -7.87767,33.60062 q -0.49486,2.11073 -1.77582,2.95388 -1.24575,0.82131 -3.24239,0.3532 -1.99664,-0.46812 -2.77606,-1.76423 -0.7442,-1.31794 -0.24934,-3.42868 l 5.67085,-24.18787 z"
             style="font-style:normal;font-variant:normal;font-weight:normal;font-stretch:normal;font-size:60px;font-family:'Swis721 BdRnd BT';-inkscape-font-specification:'Swis721 BdRnd BT';letter-spacing:5px"
             id="path5868" />
          <path
             inkscape:connector-curvature="0"
             d="m 347.61867,827.85072 q -3.03149,-0.30585 -4.9919,1.32198 -1.96042,1.62784 -2.26921,4.68848 -0.28527,2.82744 1.29898,4.63623 1.61339,1.81173 4.67403,2.12052 3.03148,0.30585 4.92184,-1.21127 1.9195,-1.51419 2.22241,-4.51652 0.29115,-2.88574 -1.31048,-4.81407 -1.60163,-1.92833 -4.54567,-2.22535 z m 9.17619,-2.51934 q 2.94274,1.76917 4.20557,4.4289 1.29198,2.66267 0.92731,6.27714 -0.61464,6.09212 -4.98715,9.155 -4.34336,3.06582 -11.36825,2.35707 -7.11233,-0.71757 -10.70041,-4.55416 -3.58807,-3.83659 -2.96755,-9.987 0.36172,-3.58532 2.06326,-5.85763 1.73363,-2.29853 5.07555,-3.61031 -2.45309,-1.66088 -3.45116,-3.73444 -0.96892,-2.07061 -0.67483,-4.9855 0.55582,-5.50914 4.50822,-8.20216 3.95535,-2.72218 10.4847,-2.06343 6.52935,0.65876 9.89332,4.08994 3.39606,3.40498 2.852,8.79752 -0.29114,2.88574 -1.75923,4.88716 -1.46514,1.97226 -4.10135,3.0019 z m -7.56702,-14.01397 q -2.6817,-0.27056 -4.42311,0.93769 -1.71226,1.21119 -1.94165,3.48481 -0.24409,2.41935 1.13931,3.88398 1.38635,1.43548 4.21379,1.72074 2.85659,0.2882 4.50173,-0.84142 1.64809,-1.15878 1.89218,-3.57814 0.23527,-2.33191 -1.20349,-3.83156 -1.43876,-1.49966 -4.17876,-1.7761 z"
             style="font-style:normal;font-variant:normal;font-weight:normal;font-stretch:normal;font-size:60px;font-family:'Swis721 BdRnd BT';-inkscape-font-specification:'Swis721 BdRnd BT';letter-spacing:5px"
             id="path5870" />
          <path
             inkscape:connector-curvature="0"
             d="m 390.3248,831.13519 q -1.42149,1.50695 -3.39147,2.29717 -1.96998,0.79022 -4.45915,0.86285 -6.17901,0.18031 -10.00666,-3.43028 -3.82764,-3.6106 -4.00966,-9.84818 -0.19313,-6.61827 3.72934,-10.80673 3.92247,-4.18846 10.54075,-4.38159 7.64323,-0.22303 11.80986,4.96038 4.16664,5.1834 4.46145,15.28652 0.31789,10.8938 -3.78843,16.81688 -4.10633,5.92307 -12.13026,6.15722 -4.86121,0.14185 -8.41698,-2.18706 -3.52649,-2.32978 -3.61707,-5.43392 -0.0478,-1.63993 0.97648,-2.69565 1.02347,-1.085 2.63412,-1.132 1.81563,-0.053 4.65724,2.91227 0.45379,0.48502 0.66562,0.71331 0.51321,0.51259 1.51999,0.86424 1.00593,0.32236 2.11873,0.28988 3.36771,-0.0983 4.98759,-2.842 1.64916,-2.74458 1.71851,-8.40331 z m -7.10576,-18.52132 q -3.07486,0.0897 -4.71525,2.13063 -1.64038,2.0409 -1.53613,5.6136 0.10169,3.48485 1.85658,5.36805 1.75405,1.85393 4.82891,1.7642 3.01629,-0.088 4.6601,-2.01178 1.6438,-1.92377 1.54639,-5.26219 -0.1034,-3.54341 -1.92199,-5.60062 -1.81945,-2.08649 -4.71861,-2.00189 z"
             style="font-style:normal;font-variant:normal;font-weight:normal;font-stretch:normal;font-size:60px;font-family:'Swis721 BdRnd BT';-inkscape-font-specification:'Swis721 BdRnd BT';letter-spacing:5px"
             id="path5872" />
          <path
             inkscape:connector-curvature="0"
             d="m 420.52594,825.70874 q -3.00853,0.48188 -4.48587,2.55806 -1.47735,2.07619 -0.99084,5.11364 0.44945,2.80604 2.44461,4.14801 2.02409,1.33733 5.06155,0.85082 3.00852,-0.48188 4.44655,-2.43308 1.46695,-1.95584 0.9897,-4.93544 -0.45871,-2.86389 -2.50133,-4.31694 -2.04263,-1.45305 -4.96437,-0.98507 z m 8.22312,-4.78853 q 3.29805,0.95527 5.20079,3.20215 1.93167,2.24225 2.50622,5.82934 0.96839,6.04598 -2.47232,10.12785 -3.41178,4.07723 -10.38346,5.19389 -7.05847,1.13056 -11.51052,-1.65745 -4.45204,-2.78801 -5.4297,-8.89185 -0.56991,-3.55816 0.49192,-6.19087 1.08613,-2.66627 3.97982,-4.79129 -2.79701,-0.97618 -4.2935,-2.72439 -1.46757,-1.75285 -1.93091,-4.64567 -0.87572,-5.46742 2.25378,-9.08405 3.12488,-3.64557 9.60479,-4.68346 6.4799,-1.03789 10.61136,1.41575 4.15575,2.42009 5.01294,7.77179 0.45871,2.86389 -0.44696,5.17488 -0.9103,2.28207 -3.19425,3.95338 z m -10.90814,-11.60447 q -2.66139,0.42628 -4.03466,2.04074 -1.34435,1.60983 -0.98294,3.86623 0.38457,2.40103 2.09734,3.46186 1.70814,1.0319 4.51417,0.58246 2.83496,-0.45408 4.13535,-1.96786 1.29576,-1.5427 0.91118,-3.94374 -0.37067,-2.31425 -2.14593,-3.39474 -1.77526,-1.08049 -4.49451,-0.64495 z"
             style="font-style:normal;font-variant:normal;font-weight:normal;font-stretch:normal;font-size:60px;font-family:'Swis721 BdRnd BT';-inkscape-font-specification:'Swis721 BdRnd BT';letter-spacing:5px"
             id="path5874" />
        </g>
      </g>
    </g>
  </g>
</svg>
